<?xml version="1.0" standalone="no"?>
<!DOCTYPE svg PUBLIC "-//W3C//DTD SVG 20010904//EN"
 "http://www.w3.org/TR/2001/REC-SVG-20010904/DTD/svg10.dtd">
<svg version="1.0" xmlns="http://www.w3.org/2000/svg"
 width="500.000000pt" height="500.000000pt" viewBox="0 0 500.000000 500.000000"
 preserveAspectRatio="xMidYMid meet">

<g transform="translate(0.000000,500.000000) scale(0.100000,-0.100000)"
fill="#000000" stroke="none">
<path d="M0 2500 l0 -2500 2500 0 2500 0 0 2500 0 2500 -2500 0 -2500 0 0
-2500z m2731 1256 c176 -38 309 -170 354 -354 7 -31 15 -118 17 -193 4 -123 7
-142 31 -191 19 -38 38 -60 65 -76 56 -31 74 -55 70 -94 -3 -28 -6 -33 -27
-30 -13 2 -40 -3 -60 -12 -20 -8 -62 -20 -93 -26 -62 -12 -88 -30 -88 -61 0
-24 14 -24 31 1 8 10 26 22 42 26 26 6 27 5 27 -37 0 -55 12 -100 57 -216 25
-64 34 -99 29 -117 -6 -25 -8 -26 -27 -12 -23 16 -59 9 -103 -20 -15 -9 -57
-61 -93 -115 -35 -54 -71 -100 -79 -103 -23 -9 -43 4 -75 50 -41 59 -88 74
-150 47 l-44 -20 30 -16 c17 -8 49 -36 73 -61 38 -41 47 -46 86 -46 25 0 57 5
71 10 24 9 26 8 20 -7 -5 -10 -10 -45 -12 -78 -5 -69 22 -134 70 -169 39 -29
135 -29 174 0 87 65 96 217 18 302 -33 36 -35 37 -109 37 -42 0 -76 1 -76 3 0
2 21 26 47 53 51 54 89 79 123 79 58 0 154 -81 198 -165 37 -73 42 -188 11
-270 -30 -81 -113 -165 -188 -190 -73 -24 -199 -17 -259 14 -56 29 -114 90
-142 148 l-21 46 -23 -49 c-30 -64 -112 -138 -177 -159 -71 -24 -198 -17 -257
14 -50 25 -113 87 -134 132 l-15 30 -7 -40 c-8 -49 -48 -98 -101 -122 -33 -15
-66 -19 -192 -19 l-153 0 0 320 0 320 108 0 109 0 -5 78 c-3 42 -10 95 -16
117 -11 37 -15 40 -48 40 -20 0 -39 3 -43 7 -13 12 17 82 61 144 63 88 104
171 104 210 0 26 -7 38 -32 58 -18 13 -45 27 -60 31 -68 17 -100 96 -59 146
16 20 30 23 112 29 151 10 185 39 260 216 76 179 148 270 256 324 100 50 196
61 314 36z"/>
<path d="M2354 3428 l-19 -23 22 18 c27 24 57 18 61 -10 3 -17 -3 -24 -22 -29
-17 -4 -31 -20 -45 -50 -26 -54 -26 -61 -1 -74 42 -22 100 38 100 104 0 77
-54 113 -96 64z"/>
<path d="M2648 3396 c-40 -30 -53 -140 -20 -169 42 -38 93 -9 112 63 23 84
-34 150 -92 106z m59 -17 c16 -16 5 -39 -18 -39 -12 0 -19 7 -19 18 0 31 17
41 37 21z"/>
<path d="M2321 3334 c0 -11 3 -14 6 -6 3 7 2 16 -1 19 -3 4 -6 -2 -5 -13z"/>
<path d="M2313 3083 c12 -132 40 -181 118 -205 76 -22 158 32 214 142 25 49
32 80 18 80 -5 0 -30 -11 -57 -25 -66 -33 -126 -33 -194 1 -29 14 -60 37 -71
50 -10 13 -22 24 -26 24 -5 0 -5 -30 -2 -67z"/>
<path d="M2154 2366 c-23 -7 -67 -28 -99 -46 l-57 -32 29 -30 c26 -27 28 -36
28 -103 0 -68 -2 -76 -29 -104 -33 -34 -33 -33 12 -51 18 -7 39 -21 46 -32 12
-16 14 -10 18 55 6 85 31 146 84 201 29 30 33 39 24 56 -14 26 -10 25 49 -5
45 -22 50 -29 59 -72 9 -42 8 -51 -8 -68 -53 -56 -65 -161 -27 -235 29 -57 61
-79 122 -86 88 -9 156 47 171 141 14 95 -19 169 -94 214 -23 14 -54 44 -69 66
-41 63 -84 106 -128 126 -47 22 -74 23 -131 5z"/>
<path d="M1820 2135 c0 -63 1 -65 25 -65 29 0 75 40 75 65 0 25 -46 65 -75 65
-24 0 -25 -2 -25 -65z"/>
<path d="M1820 1866 l0 -77 48 6 c67 10 92 28 92 69 0 44 -26 65 -89 73 l-51
6 0 -77z"/>
</g>
</svg>
