<?xml version="1.0" standalone="no"?>
<!DOCTYPE svg PUBLIC "-//W3C//DTD SVG 20010904//EN"
 "http://www.w3.org/TR/2001/REC-SVG-20010904/DTD/svg10.dtd">
<svg version="1.0" xmlns="http://www.w3.org/2000/svg"
 width="500.000000pt" height="500.000000pt" viewBox="0 0 500.000000 500.000000"
 preserveAspectRatio="xMidYMid meet">

<g transform="translate(0.000000,500.000000) scale(0.100000,-0.100000)"
fill="#000000" stroke="none">
<path d="M2354 3428 l-19 -23 22 18 c27 24 57 18 61 -10 3 -17 -3 -24 -22 -29
-17 -4 -31 -20 -45 -50 -26 -54 -26 -61 -1 -74 42 -22 100 38 100 104 0 77
-54 113 -96 64z"/>
<path d="M2648 3396 c-40 -30 -53 -140 -20 -169 42 -38 93 -9 112 63 23 84
-34 150 -92 106z m59 -17 c16 -16 5 -39 -18 -39 -12 0 -19 7 -19 18 0 31 17
41 37 21z"/>
<path d="M2321 3334 c0 -11 3 -14 6 -6 3 7 2 16 -1 19 -3 4 -6 -2 -5 -13z"/>
<path d="M2313 3083 c12 -132 40 -181 118 -205 76 -22 158 32 214 142 25 49
32 80 18 80 -5 0 -30 -11 -57 -25 -66 -33 -126 -33 -194 1 -29 14 -60 37 -71
50 -10 13 -22 24 -26 24 -5 0 -5 -30 -2 -67z"/>
<path d="M3175 2805 c-16 -8 -56 -19 -87 -25 -62 -12 -88 -30 -88 -61 0 -24
16 -25 29 0 11 20 35 28 107 37 73 8 113 29 114 57 0 11 -42 7 -75 -8z"/>
<path d="M2144 2362 c-27 -10 -66 -28 -85 -41 -19 -12 -25 -20 -14 -16 86 32
91 32 180 -12 81 -41 84 -43 92 -85 7 -37 12 -43 37 -46 28 -4 86 15 86 27 0
11 -51 85 -84 120 -35 38 -98 71 -136 70 -14 0 -48 -8 -76 -17z"/>
<path d="M3109 2370 c-50 -14 -81 -44 -146 -141 -35 -54 -71 -100 -79 -103
-23 -9 -43 4 -74 49 -41 59 -84 74 -148 49 -41 -15 -44 -18 -27 -28 11 -6 45
-35 77 -65 l57 -54 57 5 c62 5 49 -6 178 143 31 36 70 67 107 86 33 16 59 34
59 39 0 16 -34 27 -61 20z"/>
</g>
</svg>
