<?xml version="1.0" standalone="no"?>
<!DOCTYPE svg PUBLIC "-//W3C//DTD SVG 20010904//EN"
 "http://www.w3.org/TR/2001/REC-SVG-20010904/DTD/svg10.dtd">
<svg version="1.0" xmlns="http://www.w3.org/2000/svg"
 width="488.000000pt" height="244.000000pt" viewBox="0 0 488.000000 244.000000"
 preserveAspectRatio="xMidYMid meet">

<g transform="translate(0.000000,244.000000) scale(0.100000,-0.100000)"
fill="#000000" stroke="none">
<path d="M1998 2113 c6 -2 12 -9 12 -15 0 -6 10 -19 22 -30 18 -15 23 -29 21
-63 -2 -56 -18 -85 -48 -86 -14 -1 -30 -2 -37 -3 -7 -1 -23 15 -36 34 -18 27
-22 43 -18 73 6 37 6 37 -29 37 -50 0 -115 -28 -115 -50 0 -13 11 -19 44 -24
49 -8 76 -31 73 -63 -2 -29 -44 -39 -93 -23 -57 19 -248 8 -306 -18 -25 -11
-49 -18 -52 -15 -3 4 -6 1 -6 -6 0 -7 -4 -10 -9 -7 -5 4 -12 0 -14 -6 -4 -10
-6 -10 -6 0 -1 8 -15 5 -48 -11 -27 -13 -67 -27 -91 -30 -57 -7 -67 -17 -93
-95 -12 -37 -28 -73 -36 -80 -7 -7 -13 -19 -13 -26 0 -16 32 -46 48 -46 21 0
30 62 17 125 l-8 40 36 -31 c56 -50 123 -68 231 -61 50 3 102 8 116 11 17 4
14 1 -10 -10 -56 -27 -183 -30 -253 -6 -32 10 -54 15 -48 9 6 -6 11 -19 11
-28 0 -10 5 -19 11 -21 7 -2 7 -12 -2 -31 -11 -24 -10 -30 2 -38 8 -5 23 -8
34 -7 15 2 21 12 23 41 3 33 6 37 32 37 38 0 43 -11 25 -53 -14 -34 -18 -36
-67 -40 -42 -3 -36 -4 26 -5 44 -1 104 5 138 14 33 8 62 13 65 10 6 -6 -53
-23 -135 -38 -34 -6 -69 -19 -78 -29 -9 -10 -24 -56 -34 -101 -22 -106 -37
-138 -65 -138 -22 0 -49 23 -57 50 -6 18 11 83 23 90 14 9 23 90 10 90 -6 0
-14 -14 -18 -30 -4 -25 -8 -28 -20 -19 -21 18 -28 3 -28 -58 0 -49 -3 -57 -23
-64 -52 -20 -79 60 -47 138 16 38 19 105 5 138 -6 17 -9 15 -14 -15 -14 -75
-25 -209 -19 -231 10 -41 35 -60 138 -109 l100 -47 -38 -8 c-28 -6 -42 -3 -55
8 -25 22 -102 34 -102 16 -1 -8 -11 -2 -25 14 l-25 28 0 -25 c0 -37 43 -71
150 -117 145 -63 164 -73 153 -76 -6 -2 -34 6 -63 17 -29 11 -55 19 -57 16 -3
-3 -5 -111 -4 -240 1 -142 -2 -236 -8 -236 -5 0 -15 -2 -23 -5 -10 -4 -13 33
-15 192 -3 253 -9 310 -34 318 -10 4 -23 3 -29 0 -6 -4 -10 -77 -9 -195 0
-117 -4 -196 -10 -209 -19 -34 -13 -68 15 -90 31 -25 18 -27 -33 -6 -47 20
-54 13 -9 -9 71 -34 129 -40 371 -40 132 0 233 -2 225 -3 -16 -3 -334 -34
-362 -36 -15 -1 -18 -11 -17 -62 0 -33 4 -84 8 -113 6 -43 5 -55 -7 -59 -19
-8 -143 15 -224 42 -69 22 -89 20 -43 -5 31 -17 27 -36 -6 -32 -23 3 -23 2 -5
-13 29 -22 113 -52 187 -65 50 -9 99 -9 219 0 85 7 164 17 175 21 15 6 9 8
-20 6 -30 -1 -40 2 -40 13 0 18 43 26 320 65 348 49 370 53 335 54 -37 0 -124
-11 -405 -53 -234 -35 -424 -41 -376 -12 9 6 47 153 43 168 -8 32 204 64 573
88 94 6 179 12 190 15 33 7 410 5 557 -3 106 -5 139 -4 143 5 3 10 -23 13
-112 13 l-116 0 24 26 c22 24 28 25 79 19 131 -16 170 -16 170 0 0 13 21 15
130 17 72 1 140 2 153 2 17 1 23 -5 25 -26 3 -22 -1 -28 -20 -32 -96 -20 -101
-25 -21 -19 118 8 148 0 183 -49 44 -60 40 -71 -32 -96 -95 -33 -183 -44 -418
-51 l-215 -8 205 -1 c114 0 243 5 292 12 106 15 141 7 80 -17 -24 -9 -51 -17
-62 -17 -11 0 -20 -4 -20 -9 0 -20 193 24 310 70 97 39 226 125 285 191 42 47
46 56 41 88 -3 19 -6 60 -7 90 -1 74 -24 145 -66 203 -39 53 -64 69 -108 73
-41 3 -141 13 -188 19 -21 3 -69 8 -105 11 -99 8 -282 33 -323 44 -20 6 -45
20 -55 31 -10 12 -44 34 -74 49 -30 15 -64 37 -74 49 -11 12 -31 21 -48 21
-20 0 -37 9 -55 30 -13 17 -33 30 -42 30 -21 0 -124 55 -141 75 -7 9 -32 24
-55 34 -23 10 -57 35 -75 55 -18 20 -39 36 -45 36 -7 0 -47 19 -89 43 l-76 42
6 40 c3 26 -4 78 -20 148 -32 135 -39 149 -68 138 -35 -13 -75 50 -84 131 -8
68 -29 99 -68 97 -12 0 -15 -3 -8 -6z m-628 -291 c-14 -9 -54 -41 -90 -71 -61
-51 -62 -51 -25 -11 22 23 60 55 85 71 48 31 72 39 30 11z m499 -24 c-54 -40
-190 -118 -204 -118 -5 0 17 15 50 33 33 18 87 51 119 75 33 23 64 42 69 42 6
0 -10 -14 -34 -32z m100 -372 c-2 -2 -60 -10 -129 -16 -69 -7 -142 -18 -162
-25 -21 -7 -38 -11 -38 -9 0 14 62 38 113 44 70 8 222 12 216 6z m-397 -98
c-53 -43 -76 -73 -112 -150 -24 -51 -30 -58 -30 -35 0 53 62 150 124 194 49
35 63 27 18 -9z m411 -15 c-7 -2 -19 -2 -25 0 -7 3 -2 5 12 5 14 0 19 -2 13
-5z m44 1 c-3 -3 -12 -4 -19 -1 -8 3 -5 6 6 6 11 1 17 -2 13 -5z m-139 -11
c-10 -2 -28 -2 -40 0 -13 2 -5 4 17 4 22 1 32 -1 23 -4z m-120 -10 c-10 -2
-26 -2 -35 0 -10 3 -2 5 17 5 19 0 27 -2 18 -5z m912 -20 c12 -12 7 -11 -20 2
-45 22 -52 29 -20 20 14 -4 32 -14 40 -22z m-940 -43 c0 -5 -7 -10 -15 -10 -9
0 -18 -7 -21 -15 -8 -19 -24 -20 -24 0 0 15 26 34 48 35 6 0 12 -4 12 -10z
m355 -130 c-3 -5 -11 -10 -16 -10 -6 0 -7 5 -4 10 3 6 11 10 16 10 6 0 7 -4 4
-10z m-365 -47 c0 -5 -12 -16 -25 -26 -21 -15 -25 -15 -25 -3 0 8 8 20 18 25
21 12 32 14 32 4z m484 -48 c22 15 25 13 65 -38 34 -45 41 -61 41 -99 0 -25
-6 -50 -13 -56 -7 -6 -74 -16 -148 -21 -508 -38 -503 -38 -585 21 -49 35 -55
48 -21 48 13 0 27 4 33 9 5 4 41 4 81 -2 55 -8 116 -7 263 6 179 15 192 18
218 42 l27 25 -18 33 c-11 17 -16 29 -12 25 4 -4 15 0 24 9 15 15 16 15 19 0
3 -15 6 -15 26 -2z m202 -379 c164 4 263 3 267 -3 7 -11 -3 -49 -19 -76 -10
-17 -15 -18 -50 -7 -56 17 -360 24 -485 11 -60 -6 -130 -20 -160 -31 -31 -13
-69 -20 -93 -18 l-41 3 -3 45 c-1 25 2 51 7 59 14 21 72 27 200 19 64 -4 234
-5 377 -2z m-623 -113 c-7 -2 -19 -2 -25 0 -7 3 -2 5 12 5 14 0 19 -2 13 -5z"/>
<path d="M1110 1559 c27 -28 97 -59 133 -59 12 0 -9 11 -47 25 -37 13 -78 32
-90 42 -13 11 -12 8 4 -8z"/>
<path d="M1150 1482 c0 -15 24 -32 46 -32 31 0 39 17 15 29 -23 13 -61 14 -61
3z"/>
<path d="M2930 539 c0 -5 5 -7 10 -4 6 3 10 8 10 11 0 2 -4 4 -10 4 -5 0 -10
-5 -10 -11z"/>
<path d="M3058 503 c7 -3 16 -2 19 1 4 3 -2 6 -13 5 -11 0 -14 -3 -6 -6z"/>
<path d="M2278 313 c29 -2 74 -2 100 0 26 2 2 3 -53 3 -55 0 -76 -1 -47 -3z"/>
<path d="M2553 313 c9 -2 23 -2 30 0 6 3 -1 5 -18 5 -16 0 -22 -2 -12 -5z"/>
<path d="M3188 273 c6 -2 18 -2 25 0 6 3 1 5 -13 5 -14 0 -19 -2 -12 -5z"/>
<path d="M2338 263 c12 -2 30 -2 40 0 9 3 -1 5 -23 4 -22 0 -30 -2 -17 -4z"/>
<path d="M2543 263 c15 -2 37 -2 50 0 12 2 0 4 -28 4 -27 0 -38 -2 -22 -4z"/>
<path d="M3083 263 c9 -2 23 -2 30 0 6 3 -1 5 -18 5 -16 0 -22 -2 -12 -5z"/>
<path d="M2193 253 c9 -2 25 -2 35 0 9 3 1 5 -18 5 -19 0 -27 -2 -17 -5z"/>
<path d="M2088 243 c12 -2 30 -2 40 0 9 3 -1 5 -23 4 -22 0 -30 -2 -17 -4z"/>
<path d="M2008 233 c6 -2 18 -2 25 0 6 3 1 5 -13 5 -14 0 -19 -2 -12 -5z"/>
<path d="M1938 223 c6 -2 18 -2 25 0 6 3 1 5 -13 5 -14 0 -19 -2 -12 -5z"/>
<path d="M1813 203 c9 -2 23 -2 30 0 6 3 -1 5 -18 5 -16 0 -22 -2 -12 -5z"/>
<path d="M1678 183 c7 -3 16 -2 19 1 4 3 -2 6 -13 5 -11 0 -14 -3 -6 -6z"/>
<path d="M1628 173 c7 -3 16 -2 19 1 4 3 -2 6 -13 5 -11 0 -14 -3 -6 -6z"/>
</g>
</svg>
